# Asharia Scene rendering validation model.
# The extruded arrow has an off-center nose and unequal Y/Z extents so its
# orientation remains obvious in both solid and wireframe rendering.
o DirectionalWedge
v -1.25 -0.125 -0.375 0.125 0.500 1.000
v 0.25 -0.125 -0.375 0.250 0.750 1.000
v 0.25 -0.125 -0.625 1.000 0.500 0.125
v 1.50 -0.125 0.125 1.000 0.125 0.125
v 0.25 -0.125 0.750 1.000 0.750 0.125
v 0.25 -0.125 0.375 0.250 1.000 0.500
v -1.25 -0.125 0.375 0.125 0.750 0.500
v -1.25 0.250 -0.375 0.09375 0.3750 0.7500
v 0.25 0.250 -0.375 0.18750 0.5625 0.7500
v 0.25 0.250 -0.625 0.75000 0.3750 0.09375
v 1.50 0.250 0.125 0.75000 0.09375 0.09375
v 0.25 0.250 0.750 0.75000 0.5625 0.09375
v 0.25 0.250 0.375 0.18750 0.7500 0.37500
v -1.25 0.250 0.375 0.09375 0.5625 0.37500
f 1 2 6
f 1 6 7
f 2 3 4
f 2 4 6
f 6 4 5
f 13 9 8
f 14 13 8
f 11 10 9
f 13 11 9
f 12 11 13
f 1 8 9
f 1 9 2
f 2 9 10
f 2 10 3
f 3 10 11
f 3 11 4
f 4 11 12
f 4 12 5
f 5 12 13
f 5 13 6
f 6 13 14
f 6 14 7
f 7 14 8
f 7 8 1
