<svg width="73" height="58" viewBox="0 0 73 58" fill="none" xmlns="http://www.w3.org/2000/svg">
    <path d="M68.6772 36.0517C70.2147 36.9197 69.9554 39.2086 68.2627 39.7107L16.6976 55.0066C15.5343 55.3517 14.3341 54.5896 14.1516 53.39L6.76152 4.81107C6.51067 3.16215 8.26958 1.94869 9.722 2.76865L68.6772 36.0517Z" stroke="#EDF0F6" stroke-width="5"/>
    <path fill-rule="evenodd" clip-rule="evenodd" d="M0.582162 36.1481C-0.147716 35.8124 -0.203826 34.7966 0.484642 34.3826L7.6047 30.1008C7.91978 29.9113 8.31341 29.91 8.62974 30.0974L24.8573 39.7104C25.7012 40.2104 25.3958 41.5 24.4173 41.5684L8.47785 42.6822C7.84481 42.7264 7.33119 42.1774 7.41742 41.5487L7.60785 40.1602C7.66769 39.7239 7.43507 39.2998 7.03497 39.1158L0.582162 36.1481Z" fill="#D28AAE"/>
    <path fill-rule="evenodd" clip-rule="evenodd" d="M16.5369 32.9074C15.4963 32.256 16.3184 30.6648 17.4519 31.1366L39.097 40.1472C39.3654 40.2589 39.6691 40.2483 39.9291 40.1182L41.5335 39.3148L51.8829 33.4881C52.373 33.2122 52.9941 33.3946 53.2572 33.8916L57.0086 40.9774C57.1749 41.2916 57.1619 41.6704 56.9746 41.9724L50.2437 52.8234C49.9517 53.2941 49.3328 53.4378 48.8633 53.1439L16.5369 32.9074Z" fill="#332B46"/>
    <path fill-rule="evenodd" clip-rule="evenodd" d="M29.8738 25.2882C30.2897 24.7786 31.0758 24.8024 31.4601 25.3361L36.992 33.0188C37.425 33.6202 37.0763 34.4672 36.3454 34.5894L31.7265 35.3619C31.411 35.4147 31.0892 35.3133 30.8609 35.0891L26.5237 30.8303C26.155 30.4682 26.1228 29.8849 26.4495 29.4845L29.8738 25.2882Z" fill="#EDF0F6" stroke="#EDF0F6"/>
    <path fill-rule="evenodd" clip-rule="evenodd" d="M42.0165 32.0966C42.4788 33.2069 40.9478 34.0384 40.2683 33.0461L30.1467 18.2674C29.8324 17.8084 29.953 17.1812 30.4151 16.8716L42.1211 9.02807C42.9352 8.48257 43.9667 9.31215 43.6085 10.2243L40.8761 17.1826C40.8115 17.3472 40.7044 17.4917 40.5658 17.6014L37.7104 19.8604C37.3592 20.1382 37.2356 20.6157 37.4077 21.0291L42.0165 32.0966Z" fill="#332B46"/>
</svg>
